<?xml version="1.0"?>
<svg xmlns="http://www.w3.org/2000/svg" viewBox="0 0 24 24">
    <path d="M 12 2 C 6.477 2 2 6.477 2 12 C 2 17.523 6.477 22 12 22 C 17.523 22 22 17.523 22 12 C 22 6.477 17.523 2 12 2 z M 12 3 C 12.349 3 12.69325 3.0245 13.03125 3.0625 L 12.8125 5.0625 C 12.5495 5.0325 12.272 5 12 5 C 11.7 5 11.416 5.0255 11.125 5.0625 L 10.875 3.09375 C 11.248 3.04675 11.615 3 12 3 z M 15.125 3.5625 C 15.81 3.8175 16.4675 4.1565 17.0625 4.5625 L 15.9375 6.21875 C 15.4755 5.90375 14.9705 5.6355 14.4375 5.4375 L 15.125 3.5625 z M 8.78125 3.59375 L 9.5 5.46875 C 8.969 5.67375 8.458 5.929 8 6.25 L 6.84375 4.625 C 7.43275 4.213 8.09925 3.85675 8.78125 3.59375 z M 12 6 C 15.314 6 18 8.686 18 12 C 18 15.314 15.314 18 12 18 C 8.686 18 6 15.314 6 12 C 6 8.686 8.686 6 12 6 z M 18.6875 6 C 19.1695 6.537 19.5945 7.108 19.9375 7.75 L 18.1875 8.71875 C 17.9205 8.21975 17.5625 7.76175 17.1875 7.34375 L 18.6875 6 z M 5.25 6.0625 L 6.75 7.375 C 6.38 7.797 6.04325 8.27825 5.78125 8.78125 L 4.03125 7.84375 C 4.36725 7.19775 4.774 6.6055 5.25 6.0625 z M 9.875 8.875 C 9.619125 8.875 9.3825 8.992 9.1875 9.1875 C 8.7965 9.5775 8.7965 10.20275 9.1875 10.59375 L 10.59375 12 L 9.1875 13.40625 C 8.7965 13.79725 8.7965 14.4225 9.1875 14.8125 C 9.5785 15.2035 10.20375 15.2035 10.59375 14.8125 L 12 13.40625 L 13.40625 14.8125 C 13.79725 15.2035 14.4225 15.2035 14.8125 14.8125 C 15.2035 14.4215 15.2035 13.79625 14.8125 13.40625 L 13.40625 12 L 14.8125 10.59375 C 15.2035 10.20275 15.2035 9.5775 14.8125 9.1875 C 14.4215 8.7965 13.79625 8.7965 13.40625 9.1875 L 12 10.59375 L 10.59375 9.1875 C 10.39825 8.992 10.130875 8.875 9.875 8.875 z M 20.71875 9.78125 C 20.89575 10.47725 20.996 11.21875 21 11.96875 L 20.78125 11.9375 L 19 12 C 18.999 11.407 18.92025 10.83025 18.78125 10.28125 L 20.71875 9.78125 z M 3.25 9.875 L 5.1875 10.34375 C 5.0595 10.87275 5 11.432 5 12 C 5 12.009 5 12.02225 5 12.03125 L 3 12.03125 C 3.001 12.02025 3 12.012 3 12 C 3 11.27 3.086 10.554 3.25 9.875 z M 5.21875 13.6875 C 5.35675 14.2405 5.5525 14.78925 5.8125 15.28125 L 4.03125 16.21875 C 3.69525 15.58575 3.45925 14.8995 3.28125 14.1875 L 5.21875 13.6875 z M 18.78125 13.6875 L 20.71875 14.15625 C 20.54375 14.86925 20.30275 15.5525 19.96875 16.1875 L 18.1875 15.25 C 18.4465 14.756 18.64525 14.2405 18.78125 13.6875 z M 17.25 16.625 L 18.71875 17.96875 C 18.23975 18.51075 17.721 18.99225 17.125 19.40625 L 15.96875 17.75 C 16.43375 17.428 16.877 17.048 17.25 16.625 z M 6.78125 16.65625 C 7.15625 17.07625 7.56625 17.46125 8.03125 17.78125 L 6.90625 19.40625 C 6.30925 18.99425 5.76225 18.50875 5.28125 17.96875 L 6.78125 16.65625 z M 9.53125 18.53125 C 10.05025 18.72625 10.6175 18.8695 11.1875 18.9375 L 10.9375 20.9375 C 10.2045 20.8505 9.51175 20.65825 8.84375 20.40625 L 9.53125 18.53125 z M 14.5 18.53125 L 15.1875 20.40625 C 14.5205 20.66025 13.82675 20.8485 13.09375 20.9375 L 12.84375 18.9375 C 13.41175 18.8675 13.982 18.72825 14.5 18.53125 z"/>
</svg>
